<?xml version="1.0" encoding="utf-8"?>
<!-- Generator: Adobe Illustrator 22.0.1, SVG Export Plug-In . SVG Version: 6.00 Build 0)  -->
<svg version="1.1" xmlns="http://www.w3.org/2000/svg" xmlns:xlink="http://www.w3.org/1999/xlink" x="0px" y="0px"
	 viewBox="0 0 841.9 595.3" style="enable-background:new 0 0 841.9 595.3;" xml:space="preserve">
<style type="text/css">
	.st0{fill:#2196F3;}
</style>
<g>
	<rect x="200" y="400.1" class="st0" width="11.3" height="48.7"/>
	<rect x="200" y="380.2" class="st0" width="11.2" height="11"/>
	<path class="st0" d="M252,400.1c-4,0,2.1,0-12.9,0c-11.4,0-16.7,5.2-16.7,15.8c0,12.7,0,32.9,0,32.9l11.2,0c0,0,0-25.2,0-30.8
		c0-5.6,2.4-7.8,7.5-7.8c5,0,8.8,0,8.8,0c5.6,0,7.4,2.7,7.4,8.1c0,4.3,0,8.9,0,30.5h11.2c0,0,0-13.9,0-33
		C268.6,405.1,263.9,400.1,252,400.1z"/>
	<path class="st0" d="M562.1,410.1c1,0,23.7,0,23.7,0l0-9.9c0,0-21.5,0-22.4,0c-17.6,0-22.5,5.6-22.5,19c0,0,0,9.9,0,10.6
		c0,13.3,4.9,19,22.5,19c0.9,0,22.4,0,22.4,0l0-9.9c0,0-22.9,0-23.9,0c-6.4,0-9.3-3.4-9.3-9.7v-9.6
		C552.5,413,555.4,410.1,562.1,410.1z"/>
	<path class="st0" d="M309.9,400.1c-11.4,0-11.2,0-11.2,0c-14.9,0-19.3,5.7-19.3,17.3c0,5.3,0,11.5,0,12.9c0,13.6,4.5,18.6,19,18.6
		c0.3,0,17.7,0,17.7,0c0,7.8-3.6,11.1-10.6,11.1c-1,0-23.7,0-23.7,0l0,9.9c0,0,23.6,0,24.5,0c15.7,0,21.7-5.8,21.7-19.6
		c0-8.5,0-21.9,0-32.7C328.1,406,323.1,400.1,309.9,400.1z M316.1,430.4c0,5.6-2.8,8.3-7.9,8.3c-4.4,0-8.4,0-8.4,0
		c-6,0-8.4-2.7-8.4-7.8c0-1.6,0-7.6,0-13.2c0-5.4,2.2-7.7,7.8-7.7c0,0,6.3,0,9.1,0c5.1,0,7.8,3.1,7.8,7.9
		C316.1,419.8,316.1,427.2,316.1,430.4z"/>
	<path class="st0" d="M376.2,400.1l-18.2,0c-14.1,0-19,5.2-19,17c0,5.3,0,12.4,0,13.7c0,12.2,4.9,18.1,19.4,18.1c0,0-5.8,0,9.6,0
		c14.3,0,19.5-5,19.5-18.3c0-0.5,0-1,0-1.4c0,0,0-0.1,0-0.1h0v-48.8h-11.4V400.1z M375.6,430.5c0,5.4-3,8.3-8,8.3
		c-2.2,0-7.5,0-9.2,0c-5,0-7.6-3.1-7.6-8c0-7.2,0-7.3,0-12.8c0-5.5,2.6-7.8,8.6-7.8c2,0,7,0,8.7,0c5.1,0,7.5,2.9,7.5,7.9
		C375.6,423,375.6,424.9,375.6,430.5z"/>
	<path class="st0" d="M482.5,400c-0.7,0-8.5,0-9.2,0c-13.9,0-19.1,6.3-19.1,17.9c0,10.7,0-2.4,0,10.5c0,14.3,5.6,20.3,19.4,20.3
		c0.6,0,7.7,0,8.3,0c14.1,0,19.7-5.2,19.7-18.5c0,0,0-11.6,0-12.5C501.6,406,496.2,400,482.5,400z M490,430.6c0,5.4-3.5,8-8.4,8
		c-0.5,0-6.7,0-7.2,0c-5.2,0-8.6-2.8-8.6-8.6c0-7.7,0-12,0-12c0-5.1,2.8-7.8,8.6-7.8c1.8-0.1,8.2,0,7.2,0c6,0,8.4,2.9,8.4,8.7
		C490,425.7,490,429.6,490,430.6z"/>
	<path class="st0" d="M171.7,400.1c-4.2,0-28.4,0-43,0c-11.8,0-16.3,5.3-16.3,15.1c0,5.5,0,4.6,0,33.7h11.2c0,0,0-26.1,0-31.8
		c0-4.3,2.1-6.8,7.1-6.8c1.5,0,5.9,0,7.7,0c4.7,0,6.8,2.4,6.8,6.9c0,11.1,0,31.7,0,31.7h11.2c0-28.2,0-30.8,0-31.8
		c0-4.5,1.9-6.9,6.8-6.9c4.9,0,7.1,0,7.1,0c5.5,0,7.4,2.9,7.4,7.3c0,4.1,0,9.5,0,31.3h11.3c0,0,0-14.3,0-33.5
		C188.9,405.6,185,400.1,171.7,400.1z"/>
	<path class="st0" d="M424.5,400.1c-0.9,0-23.3,0-23.3,0l0,9.2c0,0,21.4,0,21.6,0c6.1,0,8.3,3,8.3,8.5l-18.1,0c-11,0-15,4.2-15,13.8
		c0,1.2,0,2.7,0,2.8c0,9.5,4.3,14.5,15.9,14.5c5.2,0,9.8,0,14,0c10.5,0,15.4-5,15.4-14.3c0-6.6,0-13.4,0-15.4
		C443.2,405.8,438.5,400.1,424.5,400.1z M424.1,440.1c-3.2,0-7,0-7.8,0c-4.9,0-7.1-2-7.1-6.6c0-4.8,1.9-6.8,6.8-6.8c1.1,0,4.4,0,8,0
		c5.4,0,7,2.5,7,6.7C431.1,438.1,429,440.1,424.1,440.1z"/>
	<rect x="514.3" y="435.4" class="st0" width="13.6" height="13.3"/>
	<path class="st0" d="M714.2,399.9c-4.2,0-28.4,0-43,0c-11.8,0-16.3,5.3-16.3,15.1c0,5.5,0,4.6,0,33.7h11.2c0,0,0-26.1,0-31.8
		c0-4.3,1.7-6.8,7.1-6.8c1.5,0,4.9,0,6.7,0c5.1,0,7.8,2,7.8,6.9c0,11.1,0,31.7,0,31.7h11.2c0-28.2,0-30.8,0-31.8
		c0-4.9,1.9-6.9,6.8-6.9c4.9,0,7.1,0,7.1,0c5.5,0,7.4,2.4,7.4,7.3c0,4.1,0,9.5,0,31.3h11.3c0,0,0-14.3,0-33.5
		C731.4,405.5,727.5,399.9,714.2,399.9z"/>
	<path class="st0" d="M624.8,400c-0.7,0-8.5,0-9.2,0c-13.9,0-19.1,6.3-19.1,17.9c0,10.7,0-2.4,0,10.5c0,14.3,5.6,20.3,19.4,20.3
		c0.6,0,7.7,0,8.3,0c14.1,0,19.7-5.2,19.7-18.5c0,0,0-11.6,0-12.5C643.9,405.9,638.5,400,624.8,400z M632.4,430.5c0,5.4-3.5,8-8.4,8
		c-0.5,0-6.7,0-7.2,0c-5.2,0-8.6-2.8-8.6-8.6c0-7.7,0-11.6,0-11.6c0-5.1,2.8-8.2,8.6-8.2c1.8-0.1,8.2,0,7.2,0c6,0,8.4,2.9,8.4,8.7
		C632.4,425.6,632.4,429.5,632.4,430.5z"/>
	<path class="st0" d="M131.1,320.6c26.7,0,38.4-10.3,38.4-36.6c0-28.7,0.3-145.1,0.3-145.1s0,0-3.3,0c-8.1,0-14.1,1.9-17.9,6h-46.3
		c-3.8-4.1-9.8-6.3-18.2-6.3c-1.7,0-2.5,0-2.7,0c0.2,0,0.4,0,0.1,0c0,128.5,0,131.5,0,146.7c0,24.5,11,35.3,37.6,35.3L131.1,320.6z
		 M107.2,169.1h36.6c-0.1,19.9-0.1,35.9-0.1,48.9h-36.6C107.1,205,107.2,189,107.2,169.1z M106.9,284.4c0-9,0-14.8,0.1-42.2h36.6
		c-0.1,28.2-0.1,33.7-0.1,42.1c0,8-4.7,12.1-12.7,12.1c-5.6,0-7.8,0-12.3,0C111.2,296.4,106.9,291.7,106.9,284.4z"/>
	<path class="st0" d="M210.7,281.1H266c0,14,0,24.8,0,29c0,11.2-3.9,14.6-15.5,14.6c-6.3,0-11.5,0-11.5,0v22.2c0,0,1.4,0,18,0
		c24.3,0,35.7-10.8,35.7-34.1c0-16.4,0-97,0-142.4c0-23.8-9.7-34.6-37.2-34.6c-19.9,0-13.7,0-34.5,0c-27.8,0-37.2,10.9-37.2,34.4
		c0,45.9,0,118,0,122.4c0,17.6-7.2,28.1-22.3,33.6c0,0.8,0,17.5,0,20.6c34.2-3.8,49.1-21.6,49.1-53.7
		C210.7,289.3,210.7,285.2,210.7,281.1z M210.7,172.8c0-9.1,3.8-12.7,14-12.7c9.5,0,19.8,0,28.3,0c8.9,0,13,4,13,13.1
		c0,6.1,0,13.8,0,22.3h-55.3C210.7,184,210.7,175.6,210.7,172.8z M210.7,219.7H266c0,12.3,0,25.1,0,37.2h-55.3
		C210.7,244.3,210.7,231.4,210.7,219.7z"/>
	<rect x="569.1" y="140.4" class="st0" width="175.9" height="24.2"/>
	<path class="st0" d="M725.1,269.6c-5.4-10.3-11.2-13.8-22.8-13.8c-8.6,0-0.6,0-12.2,0l21.3,45.6c-9.5,12-22.2,20.1-38.4,20.1
		c-14.5,0-5.5,0-74.9,0c-8.1,0-11.4-7.2-7.3-14.2c7.3-12.6,29.4-51.5,41.8-73.5h129.8v-24.2h-211v24.2h49.4l-37.5,68
		c-11,20.8-0.6,43.9,22.5,43.9c33.6,0,56,0,90.2,0c21.4,0,36.4-6.8,47.2-19l9.3,19.9h30.3C762.9,346.8,736.1,291.9,725.1,269.6z"/>
	<path class="st0" d="M438.1,187.9h-40.3c-3.8-4.2-9.9-6.5-18.5-6.5c-1.5,0-2.1,0-2.3,0c0,0,0,80.5,0,94.4
		c0,22.8,9.1,34.5,36.2,34.5l76.3,0c24.5,0,36.3-10.3,36.3-35.4c0-29.5,0-93.5,0-93.5c0,0-0.3,0-2.3,0c-7.8,0-14.1,2.4-18.2,6.5
		h-41.4l0.4-16.5h64.1v-20.8h-19.9l3.4-14.5c0,0-6.5,0-15.2,0c-9.8,0-13.6,2.6-15.3,8.7c-0.9,3.3-1.3,5-1.5,5.8h-56.2
		c-0.2-0.8-0.6-2.4-1.5-5.8c-1.7-6.1-5.5-8.8-15.1-8.7c-8.6,0-15,0-15,0l3.3,14.5h-20.6v20.8h63.5V187.9z M499.7,277.9
		c0,8-4.3,12.4-12.7,12.4c-7.5,0-65.7,0-72.2,0c-8.1,0-12.2-4.7-12.2-12.4c0-1.3,0-2.5,0-3.6h97.2
		C499.7,275.4,499.7,276.6,499.7,277.9z M499.7,256.4h-97.2c0-4,0-9.1,0-15.8h97.2C499.7,247.1,499.7,252.3,499.7,256.4z
		 M499.7,207.7c0,5.5,0,10.5,0,15h-97.2c0-4.7,0-9.8,0-15.5L499.7,207.7z"/>
	<rect x="317.5" y="136.7" class="st0" width="45.1" height="22.5"/>
	<path class="st0" d="M363,289.2c0,0-0.1-65.9-0.1-83.1c0-16.4-7.7-23.9-27.4-23.9c-9.9,0-17.8,0-17.8,0l0,22.9c0,0,5.5,0,9.9,0
		c5.8,0,7.9,2.7,7.9,7.8c0-1,0-1.8,0-2.1c0,1.2,0,16.8,0,87.3c0,13.3-6.8,21.5-17.5,24.3v23.8c19.1-1.8,28.1-7.1,35.7-15.7
		c5.8,10.5,18.8,15.6,37.4,15.6l138.1-0.2V323l-131.8,0C379.8,322.3,363.6,313.1,363,289.2z"/>
</g>
</svg>
